<?xml version="1.0" encoding="UTF-8"?>
<svg width="60px" viewBox="0 0 45 36" version="1.1" xmlns="http://www.w3.org/2000/svg" xmlns:xlink="http://www.w3.org/1999/xlink">
    <!-- Generator: Sketch 53.2 (72643) - https://sketchapp.com -->
    <title>logo-flat</title>
    <desc>Created with Sketch.</desc>
    <g id="Page-1" stroke="none" stroke-width="1" fill="none" fill-rule="evenodd">
        <g id="Artboard" transform="translate(-104.000000, -179.000000)" fill="#000000" fill-rule="nonzero">
            <g id="logo-black-copy-2" transform="translate(104.000000, 179.000000)">
                <g id="Asset-1">
                    <path d="M29.43,23.92 L22.8,13.25 L18.03,20.14 L11.33,17.27 L22.8,0.28 L22.82,0.25 L45.05,35.53 L45.05,35.54 L1.51483482,23.7947598 C1.4595412,23.7798423 1.40722145,23.7555361 1.36015854,23.7229018 C1.13323451,23.5655483 1.07683639,23.2540299 1.23418981,23.0271059 L4.94924976,17.6695079 C5.06964154,17.4958873 5.28616924,17.4166782 5.49017584,17.4716289 L29.43,23.92 Z M5.43939295,26.2693229 L12.7412527,27.7416826 L7.52055622,35.3574362 C7.40043088,35.5326705 7.18268378,35.6128571 6.97759889,35.5573833 L0.704629369,33.8605965 C0.644987987,33.844464 0.588853167,33.8174172 0.539068918,33.7808265 C0.316561802,33.6172869 0.26875917,33.3043342 0.432298751,33.0818271 L5.43939295,26.2693229 Z" id="Combined-Shape"></path>
                </g>
            </g>
        </g>
    </g>
</svg>
