<?xml version="1.0" encoding="UTF-8"?>
<svg width="56px" viewBox="0 0 45 46" version="1.1" xmlns="http://www.w3.org/2000/svg" xmlns:xlink="http://www.w3.org/1999/xlink">
    <!-- Generator: Sketch 53.2 (72643) - https://sketchapp.com -->
    <title>logo-flat</title>
    <desc>Created with Sketch.</desc>
    <g id="Page-1" stroke="none" stroke-width="1" fill="none" fill-rule="evenodd">
        <g id="Artboard" transform="translate(-104.000000, -174.000000)" fill="#000000" fill-rule="nonzero">
            <g id="logo-black-copy-2" transform="translate(104.000000, 174.000000)">
                <g id="Asset-1" transform="translate(0.000000, 5.000000)">
                    <path d="M29.43,23.67 L22.8,13 L18.03,19.89 L11.33,17.02 L22.8,0.03 L22.82,0 L45.05,35.28 L45.05,35.29 L1.51483482,23.5447598 C1.4595412,23.5298423 1.40722145,23.5055361 1.36015854,23.4729018 C1.13323451,23.3155483 1.07683639,23.0040299 1.23418981,22.7771059 L4.94924976,17.4195079 C5.06964154,17.2458873 5.28616924,17.1666782 5.49017584,17.2216289 L29.43,23.67 Z M5.43939295,26.0193229 L12.7412527,27.4916826 L7.52055622,35.1074362 C7.40043088,35.2826705 7.18268378,35.3628571 6.97759889,35.3073833 L0.704629369,33.6105965 C0.644987987,33.594464 0.588853167,33.5674172 0.539068918,33.5308265 C0.316561802,33.3672869 0.26875917,33.0543342 0.432298751,32.8318271 L5.43939295,26.0193229 Z" id="Combined-Shape"></path>
                </g>
            </g>
        </g>
    </g>
</svg>
